<?xml version="1.0" standalone="no"?>
<!DOCTYPE svg PUBLIC "-//W3C//DTD SVG 20010904//EN"
 "http://www.w3.org/TR/2001/REC-SVG-20010904/DTD/svg10.dtd">
<svg version="1.0" xmlns="http://www.w3.org/2000/svg"
 width="1000.000000pt" height="613.000000pt" viewBox="0 0 1000.000000 613.000000"
 preserveAspectRatio="xMidYMid meet">
<metadata>
Created by potrace 1.16, written by Peter Selinger 2001-2019
</metadata>
<g transform="translate(0.000000,613.000000) scale(0.100000,-0.100000)"
fill="#000000" stroke="none">
<path  d="M1336 5109 c-354 -20 -709 -108 -826 -204 -135 -111 -244 -290 -305
-500 -68 -235 -92 -532 -79 -990 5 -176 9 -444 8 -595 0 -311 -8 -376 -73
-605 -58 -208 -61 -230 -61 -434 0 -162 3 -196 20 -246 31 -89 62 -136 145
-213 59 -55 101 -83 188 -126 182 -90 450 -155 706 -174 100 -7 105 -8 112
-32 118 -402 315 -651 612 -777 146 -61 214 -74 417 -80 205 -6 301 6 451 53
296 93 513 307 599 592 l22 72 1958 0 1959 0 6 -47 c24 -188 90 -320 217 -438
176 -163 410 -235 768 -235 322 0 523 57 673 191 70 62 111 119 188 255 33 60
75 127 92 150 59 77 132 113 232 114 297 3 517 211 600 566 21 91 37 272 30
334 -16 138 -37 184 -136 307 -39 48 -82 107 -95 130 -57 95 -94 258 -94 408
0 234 -125 408 -413 577 -184 108 -502 226 -795 294 l-163 39 -147 164 c-292
328 -782 855 -901 969 -244 235 -479 393 -686 463 l-70 24 -2510 1 c-1380 1
-2572 -2 -2649 -7z m5259 -472 c110 -19 217 -52 269 -80 24 -14 142 -138 315
-332 152 -170 428 -481 615 -689 l339 -380 211 -71 c285 -97 450 -162 641
-255 168 -81 266 -146 307 -202 65 -87 90 -225 87 -478 l-2 -185 43 -7 c53 -9
85 -30 110 -71 18 -29 20 -51 20 -235 0 -230 -4 -246 -72 -308 -74 -67 -102
-74 -294 -74 l-171 0 -6 88 c-9 120 -39 231 -91 337 -125 252 -343 382 -671
401 -189 11 -351 -19 -504 -93 -79 -38 -108 -59 -180 -131 -47 -48 -101 -113
-120 -145 -54 -92 -98 -222 -118 -346 l-18 -114 -1130 7 c-621 3 -1567 9
-2102 12 l-971 7 -7 81 c-27 304 -175 546 -405 660 -166 81 -359 113 -584 95
-295 -24 -493 -133 -595 -328 -54 -104 -74 -190 -74 -328 l-1 -111 -30 4 c-17
2 -197 20 -401 39 -428 41 -514 54 -589 88 -80 37 -96 68 -96 182 0 122 4 132
62 161 l50 25 -7 87 c-11 132 -8 627 4 807 40 554 144 1114 299 1618 55 177
87 239 140 267 37 19 66 19 2837 16 2532 -2 2809 -4 2890 -19z m-4170 -2641
c212 -56 405 -219 494 -418 88 -196 85 -436 -8 -631 -83 -174 -248 -320 -431
-382 -243 -83 -493 -41 -704 117 -88 66 -157 152 -211 263 -63 130 -78 207
-73 357 4 99 10 138 32 203 89 262 313 456 584 505 67 13 246 4 317 -14z
m5950 -1 c144 -39 299 -140 387 -252 108 -138 157 -268 165 -438 11 -232 -70
-424 -247 -588 -208 -192 -520 -247 -785 -136 -431 179 -596 708 -342 1096
105 161 284 287 457 322 30 6 64 13 75 15 40 10 232 -3 290 -19z"/>
<path d="M5815 4468 c-46 -25 -45 -8 -45 -670 l0 -629 25 -24 24 -25 696 0
695 0 0 188 0 188 -47 64 c-26 36 -163 242 -306 459 -142 217 -268 402 -280
412 -54 45 -93 49 -426 49 -209 -1 -323 -4 -336 -12z"/>
<path d="M2123 1715 c-157 -43 -271 -150 -323 -306 -31 -91 -25 -229 14 -314
74 -162 203 -258 378 -279 153 -19 333 64 421 196 127 192 97 451 -72 599
-115 102 -277 142 -418 104z m257 -131 c70 -31 141 -102 173 -172 33 -71 31
-217 -3 -287 -50 -102 -155 -180 -262 -194 -159 -20 -300 56 -366 197 -23 49
-27 70 -27 147 0 73 5 99 23 136 89 180 284 253 462 173z"/>
<path  d="M8080 1720 c-140 -30 -275 -150 -328 -291 -100 -270 71 -561 359
-609 284 -48 548 195 526 485 -13 176 -131 334 -294 395 -65 24 -194 34 -263
20z m244 -134 c30 -14 76 -45 101 -71 168 -167 123 -440 -90 -553 -45 -24 -61
-27 -155 -27 -91 0 -111 3 -148 23 -175 93 -245 298 -161 464 87 171 280 240
453 164z"/>
</g>
</svg>
