<?xml version="1.0" standalone="no"?>
<!DOCTYPE svg PUBLIC "-//W3C//DTD SVG 20010904//EN"
 "http://www.w3.org/TR/2001/REC-SVG-20010904/DTD/svg10.dtd">
<svg version="1.0" xmlns="http://www.w3.org/2000/svg"
 width="630.000000pt" height="613.000000pt" viewBox="0 0 630.000000 613.000000"
 preserveAspectRatio="xMidYMid meet">

<g transform="translate(0.000000,613.000000) scale(0.100000,-0.100000)"
fill="#000000" stroke="none">
<path d="M5600 6054 c-212 -47 -493 -187 -760 -377 -554 -396 -1233 -1062
-2054 -2017 -93 -107 -179 -216 -192 -242 -44 -87 -27 -157 56 -222 33 -27 55
-36 82 -36 35 0 42 -6 98 -76 121 -152 333 -465 624 -921 271 -425 551 -825
717 -1025 229 -275 512 -530 760 -687 309 -194 678 -269 953 -195 141 39 294
129 375 220 l42 48 -3 115 -3 116 -54 28 c-50 24 -65 27 -162 27 l-108 0 -23
-30 c-70 -95 -217 -91 -363 10 -166 114 -491 496 -747 879 -50 73 -190 300
-312 505 -425 708 -666 1060 -913 1332 l-73 81 222 220 c744 733 1047 1004
1506 1346 230 172 445 290 602 331 39 10 124 20 213 23 126 5 147 8 147 22 0
9 -5 57 -11 106 -15 123 -51 229 -97 290 -38 51 -118 106 -182 127 -56 17
-265 19 -340 2z"/>
<path d="M2890 5884 c-597 -32 -1283 -179 -1816 -390 -394 -155 -663 -307
-837 -473 -141 -134 -213 -270 -224 -422 -14 -185 73 -329 250 -413 115 -55
184 -69 317 -63 213 8 284 56 363 244 26 61 47 113 47 117 0 3 -50 6 -111 6
l-112 0 7 48 c17 132 131 268 336 401 305 198 645 337 1060 431 73 17 138 30
146 30 8 0 -8 -33 -42 -85 -238 -366 -500 -1064 -643 -1715 -83 -378 -130
-742 -152 -1170 -23 -455 8 -650 126 -787 99 -116 336 -154 490 -78 83 40 115
99 115 210 0 198 74 664 181 1145 241 1078 561 1991 910 2597 38 66 59 113 59
134 0 93 -58 172 -151 207 -59 22 -192 33 -319 26z"/>
</g>
</svg>
