<svg width="1070" height="473" xmlns="http://www.w3.org/2000/svg" preserveAspectRatio="xMidYMid meet">
 <metadata>Created by potrace 1.16, written by Peter Selinger 2001-2019</metadata>

 <g>
  <title>background</title>
  <rect fill="none" id="canvas_background" height="475" width="1072" y="-1" x="-1"/>
 </g>
 <g>
  <title>Layer 1</title>
  <g stroke="null" id="svg_1" fill="#000000" transform="translate(0,613) scale(0.10000000149011612,-0.10000000149011612) ">
   <path stroke="null" fill="#4c4c4c" id="svg_2" d="m6072.23113,2689.75028c-69.21829,-4.00784 -138.6321,-21.64231 -161.50933,-40.87992c-26.3968,-22.24348 -47.70978,-58.11361 -59.63722,-100.19588c-13.29617,-47.09206 -17.98893,-106.60841 -15.44702,-198.38784c0.97766,-35.26895 1.75979,-88.97394 1.56426,-119.23309c0,-62.32184 -1.56426,-75.3473 -14.27383,-121.23701c-11.34085,-41.68149 -11.92744,-46.0901 -11.92744,-86.97002c0,-32.46346 0.5866,-39.27678 3.91064,-49.29637c6.06149,-17.83487 12.12298,-27.25328 28.35212,-42.68344c11.53638,-11.02155 19.74872,-16.63252 36.75999,-25.24936c35.5868,-18.03526 87.98935,-31.06072 138.04551,-34.86817c19.55319,-1.40274 20.53085,-1.60313 21.89957,-6.41254c23.07276,-80.55749 61.59254,-130.45503 119.66551,-155.70439c28.54765,-12.2239 41.84382,-14.82899 81.53679,-16.03134c40.08404,-1.20235 58.8551,1.20235 88.18488,10.62076c57.87744,18.63643 100.30786,61.52027 117.1236,118.63192l4.3017,14.42821l382.85142,0l383.04696,0l1.17319,-9.41841c4.69277,-37.67365 17.59787,-64.12536 42.43042,-87.77159c34.41361,-32.66386 80.16807,-47.09206 150.16848,-47.09206c62.96127,0 102.26317,11.42233 131.59296,38.27483c13.68723,12.42429 21.70404,23.84662 36.75999,51.0999c6.45255,12.02351 14.66489,25.44975 17.98893,30.05876c11.53638,15.43017 25.81021,22.64427 45.3634,22.84466c58.07297,0.60118 101.08998,42.28266 117.31913,113.42173c4.10617,18.23565 7.23468,54.50656 5.86596,66.93085c-3.12851,27.65406 -7.23468,36.87208 -26.59234,61.52027c-7.62574,9.6188 -16.03361,21.44192 -18.57553,26.05093c-11.14532,19.03722 -18.38,51.70107 -18.38,81.75984c0,46.89167 -24.44149,81.75984 -80.75467,115.62604c-35.97787,21.64231 -98.157,45.28854 -155.44785,58.91518l-31.8717,7.81528l-28.74319,32.86425c-57.09531,65.7285 -152.90593,171.33495 -176.17423,194.17961c-47.70978,47.09206 -93.65977,78.75396 -134.13487,92.78138l-13.68723,4.8094l-490.78502,0.20039c-269.834,0.20039 -502.908,-0.40078 -517.96395,-1.40274zm1028.30216,-94.58491c21.50851,-3.80744 42.43042,-10.42037 52.59808,-16.03134c4.69277,-2.80548 27.76553,-27.65406 61.59254,-66.53006c29.72085,-34.0666 83.68765,-96.38843 120.25211,-138.06992l66.28531,-76.14887l41.25723,-14.22781c55.72659,-19.438 87.98935,-32.46346 125.33594,-51.0999c32.84936,-16.23173 52.01148,-29.2572 60.02829,-40.47913c12.70957,-17.43408 17.59787,-45.08814 17.01127,-95.78726l-0.39106,-37.07247l8.40787,-1.40274c10.36319,-1.80353 16.62021,-6.01175 21.50851,-14.22781c3.51957,-5.81136 3.91064,-10.21998 3.91064,-47.09206c0,-46.0901 -0.78213,-49.29637 -14.0783,-61.72066c-14.46936,-13.42625 -19.94425,-14.82899 -57.48637,-14.82899l-33.43595,0l-1.17319,17.63447c-1.75979,24.04701 -7.62574,46.2905 -17.7934,67.53202c-24.44149,50.49872 -67.06744,76.54965 -131.20189,80.35709c-36.95553,2.20431 -68.63169,-3.80744 -98.54807,-18.63643c-15.44702,-7.61489 -21.11744,-11.82311 -35.19574,-26.25132c-9.19,-9.6188 -19.74872,-22.64427 -23.46383,-29.0568c-10.55872,-18.43604 -19.16212,-44.48697 -23.07276,-69.33555l-3.51957,-22.84466l-220.95103,1.40274c-121.4253,0.60118 -306.39846,1.80353 -411.00801,2.4047l-189.86146,1.40274l-1.36872,16.23173c-5.27936,60.91909 -34.21808,109.4139 -79.19041,132.25856c-32.45829,16.23173 -70.19595,22.64427 -114.19062,19.03722c-57.68191,-4.8094 -96.39722,-26.6521 -116.34147,-65.7285c-10.55872,-20.84074 -14.46936,-38.07443 -14.46936,-65.7285l-0.19553,-22.24348l-5.86596,0.80157c-3.32404,0.40078 -38.51978,4.00784 -78.40828,7.81528c-83.68765,8.21606 -100.50339,10.82115 -115.16828,17.63447c-15.64255,7.41449 -18.77106,13.62664 -18.77106,36.4713c0,24.44779 0.78213,26.45171 12.12298,32.26307l9.77659,5.00979l-1.36872,17.43408c-2.15085,26.45171 -1.56426,125.64563 0.78213,161.71615c7.82128,111.01703 28.15659,223.23642 58.46403,324.23386c10.75425,35.46934 17.01127,47.89363 27.37446,53.5046c7.23468,3.80744 12.9051,3.80744 554.72395,3.20627c495.08672,-0.40078 549.24906,-0.80157 565.08714,-3.80744zm-815.36795,-529.23462c41.45276,-11.22194 79.19041,-43.88579 96.59275,-83.76375c17.20681,-39.27678 16.62021,-87.37081 -1.56426,-126.4472c-16.22915,-34.86817 -48.49191,-64.12536 -84.27424,-76.54965c-47.51425,-16.63252 -96.39722,-8.21606 -137.65444,23.44584c-17.20681,13.22586 -30.69851,30.45955 -41.25723,52.70303c-12.31851,26.05093 -15.25149,41.48109 -14.27383,71.53986c0.78213,19.83878 1.95532,27.65406 6.25702,40.67953c17.40234,52.50264 61.20148,91.37864 114.19062,101.19784c13.10064,2.60509 48.10084,0.80157 61.98361,-2.80548zm1163.41469,-0.20039c28.15659,-7.81528 58.46403,-28.05485 75.67084,-50.49872c21.11744,-27.65406 30.69851,-53.70499 32.26276,-87.77159c2.15085,-46.49089 -13.68723,-84.9661 -48.29637,-117.83035c-40.67063,-38.47522 -101.67658,-49.49676 -153.49253,-27.25328c-84.27424,35.87012 -116.537,141.87736 -66.8719,219.62936c20.53085,32.26307 55.53105,57.51243 89.35807,64.52615c5.86596,1.20235 12.51404,2.60509 14.66489,3.00588c7.82128,2.00392 45.3634,-0.60118 56.70425,-3.80744z"/>
   <path stroke="null" fill="#4c4c4c" id="svg_3" d="m6948.01842,2561.29917c-8.99447,-5.00979 -8.79893,-1.60313 -8.79893,-134.26248l0,-126.04641l4.8883,-4.8094l4.69277,-5.00979l136.09019,0l135.89466,0l0,37.67365l0,37.67365l-9.19,12.82507c-5.08383,7.2141 -31.8717,48.4948 -59.83276,91.97982c-27.76553,43.48501 -52.40254,80.55749 -54.74893,82.5614c-10.55872,9.01763 -18.18446,9.8192 -83.29658,9.8192c-40.86616,-0.20039 -63.1568,-0.80157 -65.69871,-2.4047z"/>
   <path stroke="null" fill="#4c4c4c" id="svg_4" d="m6226.11472,2009.62066c-30.69851,-8.61685 -52.98914,-30.05876 -63.1568,-61.31988c-6.06149,-18.23565 -4.8883,-45.88971 2.73745,-62.92301c14.46936,-32.46346 39.69297,-51.70107 73.91105,-55.9093c29.91638,-3.80744 65.11212,12.82507 82.31892,39.27678c24.83255,38.47522 18.96659,90.37668 -14.0783,120.03466c-22.48617,20.43996 -54.16233,28.45563 -81.73233,20.84074zm50.25169,-26.25132c13.68723,-6.21214 27.57,-20.43996 33.82702,-34.46738c6.45255,-14.22781 6.06149,-43.48501 -0.5866,-57.51243c-9.77659,-20.43996 -30.30744,-36.07052 -51.22935,-38.876c-31.08957,-4.00784 -58.65956,11.22194 -71.56467,39.47718c-4.49723,9.8192 -5.27936,14.02742 -5.27936,29.45759c0,14.6286 0.97766,19.83878 4.49723,27.25328c17.40234,36.07052 55.53105,50.69911 90.33573,34.66777z"/>
   <path stroke="null" fill="#4c4c4c" id="svg_5" d="m7390.89814,2010.62262c-27.37446,-6.01175 -53.77127,-30.05876 -64.13446,-58.314c-19.55319,-54.10577 13.88276,-112.41977 70.19595,-122.03858c55.53105,-9.6188 107.15147,39.07639 102.84977,97.19c-2.54191,35.26895 -25.61468,66.93085 -57.48637,79.15474c-12.70957,4.8094 -37.93319,6.81332 -51.42488,4.00784zm47.70978,-26.8525c5.86596,-2.80548 14.86042,-9.01763 19.74872,-14.22781c32.84936,-33.46542 24.05042,-88.17237 -17.59787,-110.81664c-8.79893,-4.8094 -11.92744,-5.41058 -30.30744,-5.41058c-17.7934,0 -21.70404,0.60118 -28.93872,4.60901c-34.21808,18.63643 -47.90531,59.71674 -31.48063,92.98177c17.01127,34.26699 54.74893,48.09402 88.57594,32.86425z"/>
  </g>
  <g stroke="null" id="svg_12">
   <g stroke="null" id="svg_9" fill="#000000" transform="matrix(0.04788365650547764,0,0,-0.058825126911546,-626.0133462927048,-375.9620062698728) ">
    <path stroke="null" fill="#007f00" id="svg_10" d="m19182.49422,-6875.46422c-212,-47 -493,-187 -760,-377c-554,-396 -1233,-1062 -2054,-2017c-93,-107 -179,-216 -192,-242c-44,-87 -27,-157 56,-222c33,-27 55,-36 82,-36c35,0 42,-6 98,-76c121,-152 333,-465 624,-921c271,-425 551,-825 717,-1025c229,-275 512,-530 760,-687c309,-194 678,-269 953,-195c141,39 294,129 375,220l42,48l-3,115l-3,116l-54,28c-50,24 -65,27 -162,27l-108,0l-23,-30c-70,-95 -217,-91 -363,10c-166,114 -491,496 -747,879c-50,73 -190,300 -312,505c-425,708 -666,1060 -913,1332l-73,81l222,220c744,733 1047,1004 1506,1346c230,172 445,290 602,331c39,10 124,20 213,23c126,5 147,8 147,22c0,9 -5,57 -11,106c-15,123 -51,229 -97,290c-38,51 -118,106 -182,127c-56,17 -265,19 -340,2z"/>
    <path stroke="null" fill="#007f00" id="svg_11" d="m16472.49422,-7045.46422c-597,-32 -1283,-179 -1816,-390c-394,-155 -663,-307 -837,-473c-141,-134 -213,-270 -224,-422c-14,-185 73,-329 250,-413c115,-55 184,-69 317,-63c213,8 284,56 363,244c26,61 47,113 47,117c0,3 -50,6 -111,6l-112,0l7,48c17,132 131,268 336,401c305,198 645,337 1060,431c73,17 138,30 146,30c8,0 -8,-33 -42,-85c-238,-366 -500,-1064 -643,-1715c-83,-378 -130,-742 -152,-1170c-23,-455 8,-650 126,-787c99,-116 336,-154 490,-78c83,40 115,99 115,210c0,198 74,664 181,1145c241,1078 561,1991 910,2597c38,66 59,113 59,134c0,93 -58,172 -151,207c-59,22 -192,33 -319,26z"/>
   </g>
  </g>
  <text font-weight="bold" stroke="#000" transform="matrix(1.51266965662594,0,0,1.418721675872803,-125.73192648142654,-5.167084753513336) " xml:space="preserve" text-anchor="start" font-family="Helvetica, Arial, sans-serif" font-size="134" id="svg_14" y="210.5" x="290.15704" stroke-width="0" fill="#000000">onstant</text>
  <text font-weight="bold" stroke="#000" transform="matrix(1.1682018144197173,0,0,1.1000962257385254,-223.21545771068483,-25.061592519283295) " xml:space="preserve" text-anchor="start" font-family="Helvetica, Arial, sans-serif" font-size="111" id="svg_15" y="423.49388" x="580.77201" stroke-width="0" fill="#666666">m      vers</text>
  <ellipse rx="0.5" id="svg_17" cy="27.5" cx="631" stroke-opacity="null" stroke-width="0" stroke="#000" fill="#4c4c4c"/>
 </g>
</svg>