<svg width="810" height="413" xmlns="http://www.w3.org/2000/svg" preserveAspectRatio="xMidYMid meet">
 <metadata>Created by potrace 1.16, written by Peter Selinger 2001-2019</metadata>

 <g>
  <title>background</title>
  <rect fill="none" id="canvas_background" height="415" width="812" y="-1" x="-1"/>
 </g>
 <g>
  <title>Layer 1</title>
  <g id="svg_1" fill="#000000" transform="translate(0,613) scale(0.10000000149011612,-0.10000000149011612) ">
   <path fill="#4c4c4c" stroke="null" id="svg_2" d="m4380.7275,3189.95364c-57.42616,-3.44227 -115.01454,-18.58827 -133.99437,-35.11119c-21.89981,-19.10462 -39.58187,-49.91296 -49.47734,-86.05683c-11.03101,-40.44671 -14.92431,-91.56446 -12.81544,-170.39252c0.8111,-30.292 1.45999,-76.41846 1.29777,-102.40762c0,-53.52735 -1.29777,-64.71473 -11.84212,-104.12876c-9.40881,-35.79964 -9.89547,-39.58614 -9.89547,-74.69733c0,-27.88241 0.48666,-33.73428 3.24442,-42.33996c5.02884,-15.31812 10.05769,-23.40746 23.52201,-36.66021c9.57103,-9.46625 16.3843,-14.28543 30.49751,-21.68632c29.52418,-15.49023 72.99935,-26.67762 114.52787,-29.94778c16.22208,-1.2048 17.03318,-1.37691 18.16873,-5.50764c19.14205,-69.18969 51.09955,-112.04599 99.27912,-133.73231c23.68423,-10.49893 34.71525,-12.73641 67.64607,-13.76909c33.25526,-1.03268 48.82846,1.03268 73.16157,9.12202c48.01735,16.00657 83.21926,52.83889 97.17025,101.89128l3.56886,12.39218l317.6283,0l317.79052,0l0.97332,-8.08934c3.8933,-32.35737 14.59987,-55.07637 35.20191,-75.38578c28.55086,-28.05453 66.51052,-40.44671 124.58556,-40.44671c52.23509,0 84.84147,9.81048 109.17459,32.87371c11.35545,10.67105 18.00651,20.48152 30.49751,43.88898c5.35329,10.32682 12.16656,21.85843 14.92431,25.81705c9.57103,13.25275 21.41314,19.44884 37.63522,19.62096c48.17957,0.51634 83.86815,36.31598 97.33247,97.41633c3.40664,15.66234 6.00217,46.81491 4.86662,57.48596c-2.59553,23.75168 -6.00217,31.66891 -22.06203,52.83889c-6.32661,8.26146 -13.3021,18.41616 -15.41097,22.37477c-9.24658,16.3508 -15.24875,44.40532 -15.24875,70.22237c0,40.27459 -20.2776,70.22237 -66.99718,99.30958c-29.84862,18.58827 -81.43483,38.89769 -128.96552,50.60141l-26.44199,6.71243l-23.84646,28.22664c-47.36847,56.45328 -126.85665,147.15717 -146.16093,166.77813c-39.58187,40.44671 -77.70376,67.64067 -111.28346,79.68862l-11.35545,4.13073l-407.17417,0.17211c-223.86468,0.17211 -417.23186,-0.34423 -429.72286,-1.2048zm853.1191,-81.23764c17.84429,-3.27016 35.20191,-8.94991 43.63739,-13.76909c3.8933,-2.40959 23.03535,-23.75168 51.09955,-57.14173c24.65756,-29.25932 69.4305,-82.78667 99.76578,-118.58631l54.99285,-65.40319l34.22859,-12.22007c46.23292,-16.69502 72.99935,-27.88241 103.98352,-43.88898c27.25309,-13.94121 43.15073,-25.12859 49.80178,-34.76696c10.54435,-14.97389 14.59987,-38.72557 14.11321,-82.27033l-0.32444,-31.84103l6.97549,-1.2048c8.5977,-1.54902 13.78877,-5.16341 17.84429,-12.22007c2.91997,-4.9913 3.24442,-8.7778 3.24442,-40.44671c0,-39.58614 -0.64888,-42.33996 -11.6799,-53.011c-12.00434,-11.53161 -16.54652,-12.73641 -47.69291,-12.73641l-27.73975,0l-0.97332,15.146c-1.45999,20.65364 -6.32661,39.75825 -14.76209,58.0023c-20.2776,43.37264 -55.64173,65.74742 -108.85015,69.01757c-30.65973,1.89325 -56.9395,-3.27016 -81.75928,-16.00657c-12.81544,-6.54032 -17.51984,-10.15471 -29.19974,-22.54689c-7.62438,-8.26146 -16.3843,-19.44884 -19.46649,-24.95648c-8.75992,-15.83446 -15.89764,-38.20923 -19.14205,-59.55132l-2.91997,-19.62096l-183.30949,1.2048c-100.73911,0.51634 -254.19997,1.54902 -340.98809,2.06536l-157.51638,1.2048l-1.13555,13.94121c-4.37996,52.32255 -28.38864,93.97405 -65.69942,113.59501c-26.92865,13.94121 -58.23726,19.44884 -94.73694,16.3508c-47.85513,-4.13073 -79.97485,-22.89112 -96.52137,-56.45328c-8.75992,-17.89982 -12.00434,-32.70159 -12.00434,-56.45328l-0.16222,-19.10462l-4.86662,0.68845c-2.75775,0.34423 -31.95749,3.44227 -65.05053,6.71243c-69.4305,7.05666 -83.38148,9.29414 -95.54804,15.146c-12.97766,6.36821 -15.5732,11.70373 -15.5732,31.32468c0,20.99787 0.64888,22.719 10.05769,27.7103l8.11104,4.30284l-1.13555,14.97389c-1.78443,22.719 -1.29777,107.91526 0.64888,138.89572c6.48883,95.35096 23.35979,191.73461 48.50401,278.47989c8.92214,30.46412 14.11321,41.13516 22.71091,45.95435c6.00217,3.27016 10.70657,3.27016 460.22036,2.75382c410.74303,-0.34423 455.67818,-0.68845 468.81807,-3.27016zm-676.46067,-454.55216c34.39081,-9.63836 65.69942,-37.69289 80.13707,-71.94351c14.27543,-33.73428 13.78877,-75.04155 -1.29777,-108.60371c-13.46433,-29.94778 -40.23075,-55.07637 -69.91716,-65.74742c-39.41965,-14.28543 -79.97485,-7.05666 -114.20343,20.1373c-14.27543,11.3595 -25.46866,26.16128 -34.22859,45.26589c-10.21991,22.37477 -12.65322,35.62753 -11.84212,61.44457c0.64888,17.03925 1.62221,23.75168 5.19107,34.93907c14.43765,45.09378 50.77511,78.48383 94.73694,86.91739c10.86879,2.23748 39.90631,0.68845 51.42399,-2.40959zm965.21367,-0.17211c23.35979,-6.71243 48.50401,-24.09591 62.77944,-43.37264c17.51984,-23.75168 25.46866,-46.12646 26.76643,-75.38578c1.78443,-39.93037 -11.35545,-72.97619 -40.06853,-101.20283c-33.74192,-33.04582 -84.35481,-42.51207 -127.34332,-23.40746c-69.91716,30.80834 -96.68359,121.85647 -55.47951,188.63656c17.03318,27.7103 46.0707,49.39662 74.1349,55.4206c4.86662,1.03268 10.38213,2.23748 12.16656,2.5817c6.48883,1.72114 37.63522,-0.51634 47.04403,-3.27016z"/>
   <path fill="#4c4c4c" stroke="null" id="svg_3" d="m5107.3144,3079.62879c-7.46216,-4.30284 -7.29994,-1.37691 -7.29994,-115.31615l0,-108.25949l4.05552,-4.13073l3.8933,-4.30284l112.90567,0l112.74345,0l0,32.35737l0,32.35737l-7.62438,11.01527c-4.21774,6.19609 -26.44199,41.6515 -49.63956,79.00017c-23.03535,37.34866 -43.47517,69.18969 -45.42182,70.91082c-8.75992,7.74511 -15.08653,8.43357 -69.10605,8.43357c-33.90414,-0.17211 -52.39731,-0.68845 -54.50618,-2.06536z"/>
   <path fill="#4c4c4c" stroke="null" id="svg_4" d="m4508.39526,2605.79991c-25.46866,-7.40089 -43.96183,-25.81705 -52.39731,-52.66678c-5.02884,-15.66234 -4.05552,-39.41403 2.27109,-54.04369c12.00434,-27.88241 32.93082,-44.40532 61.31946,-48.01971c24.81978,-3.27016 54.01952,11.01527 68.29495,33.73428c20.60204,33.04582 15.73542,77.62326 -11.6799,103.09608c-18.65539,17.55559 -44.93516,24.44014 -67.80829,17.89982zm41.69074,-22.54689c11.35545,-5.33552 22.87313,-17.55559 28.0642,-29.60355c5.35329,-12.22007 5.02884,-37.34866 -0.48666,-49.39662c-8.11104,-17.55559 -25.14422,-30.98046 -42.50185,-33.39005c-25.7931,-3.44227 -48.66624,9.63836 -59.37281,33.90639c-3.73108,8.43357 -4.37996,12.04796 -4.37996,25.30071c0,12.5643 0.8111,17.03925 3.73108,23.40746c14.43765,30.98046 46.0707,43.54475 74.946,29.77566z"/>
   <path fill="#4c4c4c" stroke="null" id="svg_5" d="m5474.74447,2606.66048c-22.71091,-5.16341 -44.61072,-25.81705 -53.20842,-50.08507c-16.22208,-46.47069 11.51768,-96.55576 58.23726,-104.81721c46.0707,-8.26146 88.89699,33.56216 85.32813,83.47512c-2.10887,30.292 -21.25092,57.48596 -47.69291,67.98489c-10.54435,4.13073 -31.47083,5.85186 -42.66407,3.44227zm39.58187,-23.06323c4.86662,-2.40959 12.32878,-7.74511 16.3843,-12.22007c27.25309,-28.74298 19.95316,-75.73001 -14.59987,-95.17885c-7.29994,-4.13073 -9.89547,-4.64707 -25.14422,-4.64707c-14.76209,0 -18.00651,0.51634 -24.00868,3.95861c-28.38864,16.00657 -39.74409,51.28987 -26.11755,79.86073c14.11321,29.43143 45.42182,41.30728 73.48602,28.22664z"/>
  </g>
  <g stroke="null" id="svg_12">
   <g id="svg_9" fill="#000000" transform="matrix(0.0420007967775084,0,0,-0.054028823486960725,-511.49868317178334,-347.49549915545464) ">
    <path fill="#007f00" stroke="null" id="svg_10" d="m18264.82468,-6587.72395c-212,-47 -493,-187 -760,-377c-554,-396 -1233,-1062 -2054,-2017c-93,-107 -179,-216 -192,-242c-44,-87 -27,-157 56,-222c33,-27 55,-36 82,-36c35,0 42,-6 98,-76c121,-152 333,-465 624,-921c271,-425 551,-825 717,-1025c229,-275 512,-530 760,-687c309,-194 678,-269 953,-195c141,39 294,129 375,220l42,48l-3,115l-3,116l-54,28c-50,24 -65,27 -162,27l-108,0l-23,-30c-70,-95 -217,-91 -363,10c-166,114 -491,496 -747,879c-50,73 -190,300 -312,505c-425,708 -666,1060 -913,1332l-73,81l222,220c744,733 1047,1004 1506,1346c230,172 445,290 602,331c39,10 124,20 213,23c126,5 147,8 147,22c0,9 -5,57 -11,106c-15,123 -51,229 -97,290c-38,51 -118,106 -182,127c-56,17 -265,19 -340,2z"/>
    <path fill="#007f00" stroke="null" id="svg_11" d="m15554.82468,-6757.72395c-597,-32 -1283,-179 -1816,-390c-394,-155 -663,-307 -837,-473c-141,-134 -213,-270 -224,-422c-14,-185 73,-329 250,-413c115,-55 184,-69 317,-63c213,8 284,56 363,244c26,61 47,113 47,117c0,3 -50,6 -111,6l-112,0l7,48c17,132 131,268 336,401c305,198 645,337 1060,431c73,17 138,30 146,30c8,0 -8,-33 -42,-85c-238,-366 -500,-1064 -643,-1715c-83,-378 -130,-742 -152,-1170c-23,-455 8,-650 126,-787c99,-116 336,-154 490,-78c83,40 115,99 115,210c0,198 74,664 181,1145c241,1078 561,1991 910,2597c38,66 59,113 59,134c0,93 -58,172 -151,207c-59,22 -192,33 -319,26z"/>
   </g>
  </g>
  <text font-weight="bold" stroke="#000" transform="matrix(0.9367713928222656,0,0,1,27.477769553661346,0) " xml:space="preserve" text-anchor="start" font-family="Helvetica, Arial, sans-serif" font-size="134" id="svg_14" y="260.5" x="264.76281" stroke-width="0" fill="#000000">onstant</text>
  <text font-weight="bold" stroke="#000" transform="matrix(0.9367713928222656,0,0,1,27.477769553661346,0) " xml:space="preserve" text-anchor="start" font-family="Helvetica, Arial, sans-serif" font-size="111" id="svg_15" y="377.5" x="308.53016" stroke-width="0" fill="#666666">m      vers</text>
  <ellipse rx="0.5" id="svg_17" cy="27.5" cx="631" stroke-opacity="null" stroke-width="0" stroke="#000" fill="#4c4c4c"/>
 </g>
</svg>