<svg width="1070" height="413" xmlns="http://www.w3.org/2000/svg" preserveAspectRatio="xMidYMid meet">
 <metadata>Created by potrace 1.16, written by Peter Selinger 2001-2019</metadata>

 <g>
  <title>background</title>
  <rect fill="none" id="canvas_background" height="415" width="1072" y="-1" x="-1"/>
 </g>
 <g>
  <title>Layer 1</title>
  <g stroke="null" id="svg_1" fill="#000000" transform="translate(0,613) scale(0.10000000149011612,-0.10000000149011612) ">
   <path stroke="null" fill="#4c4c4c" id="svg_2" d="m5737.45642,3262.94929c-64.50852,-3.45431 -129.19926,-18.65325 -150.51988,-35.23392c-24.60071,-19.1714 -44.4635,-50.08744 -55.57937,-86.35765c-12.39147,-40.5881 -16.76493,-91.88454 -14.39597,-170.98816c0.91114,-30.39789 1.64005,-76.6856 1.45782,-102.76561c0,-53.71446 -1.45782,-64.94096 -13.3026,-104.49276c-10.56919,-35.92478 -11.11587,-39.72452 -11.11587,-74.95844c0,-27.97988 0.54668,-33.8522 3.64455,-42.48797c5.64905,-15.37166 11.2981,-23.48928 26.42298,-36.78836c10.75142,-9.49934 18.40497,-14.33537 34.25876,-21.76213c33.1654,-15.54438 82.00235,-26.77087 128.65258,-30.05246c18.22275,-1.20901 19.13388,-1.38172 20.40947,-5.52689c21.50284,-69.43155 57.40165,-112.43767 111.5232,-134.19979c26.60521,-10.53563 38.99668,-12.78093 75.98885,-13.81722c37.35663,-1.03629 54.85046,1.03629 82.18458,9.15391c53.93933,16.06252 93.48268,53.0236 109.15424,102.24746l4.009,12.4355l356.80135,0l356.98358,0l1.09336,-8.11762c4.37346,-32.47048 16.40047,-55.2689 39.54336,-75.64931c32.07203,-28.1526 74.71326,-40.5881 139.95068,-40.5881c58.67724,0 95.30496,9.84477 122.63908,32.98862c12.75592,10.70835 20.22725,20.55312 34.25876,44.0424c6.01351,10.36292 13.66706,21.93484 16.76493,25.9073c10.75142,13.29908 24.05402,19.51683 42.27677,19.68955c54.12155,0.51815 94.21159,36.44293 109.33647,97.75686c3.82678,15.71709 6.74242,46.97856 5.46682,57.68691c-2.91564,23.83471 -6.74242,31.77962 -24.78293,53.0236c-7.10687,8.29033 -14.94265,18.48054 -17.31161,22.45299c-10.38696,16.40795 -17.12938,44.56055 -17.12938,70.46785c0,40.41538 -22.77843,70.46785 -75.25994,99.65673c-33.52985,18.65325 -91.47818,39.03366 -144.87083,50.7783l-29.70307,6.7359l-26.78744,28.32531c-53.21042,56.65062 -142.50187,147.67159 -164.18694,167.36113c-44.4635,40.5881 -87.28695,67.87712 -125.00803,79.96719l-12.75592,4.14517l-457.39091,0.17272c-251.47389,0.17272 -468.68901,-0.34543 -482.72053,-1.20901zm958.33418,-81.52163c20.04502,-3.28159 39.54336,-8.9812 49.01919,-13.81722c4.37346,-2.41801 25.8763,-23.83471 57.40165,-57.34148c27.69857,-29.3616 77.99335,-83.07606 112.06988,-119.00085l61.77511,-65.63182l38.44999,-12.26279c51.93482,-16.75338 82.00235,-27.97988 116.8078,-44.0424c30.61421,-13.98994 48.4725,-25.21644 55.94383,-34.88849c11.84478,-15.02623 16.40047,-38.86094 15.85379,-82.55792l-0.36445,-31.95233l7.83578,-1.20901c9.65806,-1.55444 15.48933,-5.18146 20.04502,-12.26279c3.28009,-5.00874 3.64455,-8.80848 3.64455,-40.5881c0,-39.72452 -0.72891,-42.48797 -13.12038,-53.19632c-13.48483,-11.57193 -18.5872,-12.78093 -53.57487,-12.78093l-31.16089,0l-1.09336,15.19895c-1.64005,20.72584 -7.10687,39.89724 -16.5827,58.20506c-22.77843,43.52426 -62.50402,65.97725 -122.27462,69.25884c-34.44099,1.89987 -63.96184,-3.28159 -91.84264,-16.06252c-14.39597,-6.56318 -19.68057,-10.1902 -32.80094,-22.62571c-8.56469,-8.29033 -18.40497,-19.51683 -21.86729,-25.04372c-9.84028,-15.88981 -17.85829,-38.3428 -21.50284,-59.7595l-3.28009,-19.68955l-205.91702,1.20901c-113.16325,0.51815 -285.55042,1.55444 -383.04211,2.07258l-176.94286,1.20901l-1.27559,13.98994c-4.92014,52.50545 -31.8898,94.30256 -73.80212,113.9921c-30.24976,13.98994 -65.41966,19.51683 -106.42083,16.40795c-53.7571,-4.14517 -89.83813,-22.97114 -108.42533,-56.65062c-9.84028,-17.96239 -13.48483,-32.81591 -13.48483,-56.65062l-0.18223,-19.1714l-5.46682,0.69086c-3.09787,0.34543 -35.89881,3.45431 -73.07321,6.7359c-77.99335,7.08133 -93.66491,9.32663 -107.33197,15.19895c-14.5782,6.39047 -17.49384,11.74464 -17.49384,31.43419c0,21.07127 0.72891,22.79842 11.2981,27.80716l9.11137,4.31788l-1.27559,15.02623c-2.0045,22.79842 -1.45782,108.2925 0.72891,139.38125c7.2891,95.68428 26.24075,192.40485 54.48601,279.45337c10.02251,30.57061 15.85379,41.27896 25.51184,46.11499c6.74242,3.28159 12.02701,3.28159 516.97929,2.76344c461.39991,-0.34543 511.87692,-0.69086 526.63734,-3.28159zm-759.88848,-456.14113c38.63222,-9.67206 73.80212,-37.82465 90.02036,-72.195c16.03602,-33.8522 15.48933,-75.30387 -1.45782,-108.98336c-15.12488,-30.05246 -45.19241,-55.2689 -78.54003,-65.97725c-44.28127,-14.33537 -89.83813,-7.08133 -128.28813,20.20769c-16.03602,11.39921 -28.60971,26.25273 -38.44999,45.42413c-11.48033,22.45299 -14.21374,35.75207 -13.3026,61.65937c0.72891,17.09882 1.82227,23.83471 5.83128,35.06121c16.21824,45.25141 57.03719,78.75818 106.42083,87.22123c12.20924,2.2453 44.82795,0.69086 57.7661,-2.41801zm1084.25335,-0.17272c26.24075,-6.7359 54.48601,-24.18014 70.52202,-43.52426c19.68057,-23.83471 28.60971,-46.2877 30.06753,-75.64931c2.0045,-40.06995 -12.75592,-73.23129 -45.01018,-101.5566c-37.90331,-33.16134 -94.75828,-42.66068 -143.04855,-23.48928c-78.54003,30.91604 -108.60756,122.28244 -62.32179,189.29598c19.13388,27.80716 51.7526,49.56929 83.27795,55.61433c5.46682,1.03629 11.66256,2.2453 13.66706,2.59073c7.2891,1.72715 42.27677,-0.51815 52.84596,-3.28159z"/>
   <path stroke="null" fill="#4c4c4c" id="svg_3" d="m6553.65318,3152.23878c-8.38246,-4.31788 -8.20024,-1.38172 -8.20024,-115.71926l0,-108.63793l4.55569,-4.14517l4.37346,-4.31788l126.83031,0l126.64808,0l0,32.47048l0,32.47048l-8.56469,11.05378c-4.73791,6.21775 -29.70307,41.7971 -55.7616,79.27633c-25.8763,37.47922 -48.83696,69.43155 -51.02369,71.15871c-9.84028,7.77219 -16.94715,8.46305 -77.6289,8.46305c-38.08554,-0.17272 -58.85947,-0.69086 -61.22842,-2.07258z"/>
   <path stroke="null" fill="#4c4c4c" id="svg_4" d="m5880.86943,2676.75353c-28.60971,-7.42676 -49.38364,-25.9073 -58.85947,-52.85088c-5.64905,-15.71709 -4.55569,-39.55181 2.55118,-54.23261c13.48483,-27.97988 36.99217,-44.56055 68.88198,-48.18757c27.8808,-3.28159 60.68174,11.05378 76.71776,33.8522c23.14289,33.16134 17.67606,77.8946 -13.12038,103.45647c-20.95616,17.61696 -50.477,24.52557 -76.17108,17.96239zm46.83246,-22.62571c12.75592,-5.35417 25.69407,-17.61696 31.52535,-29.70703c6.01351,-12.26279 5.64905,-37.47922 -0.54668,-49.56929c-9.11137,-17.61696 -28.24526,-31.08876 -47.74359,-33.50677c-28.97417,-3.45431 -54.66824,9.67206 -66.69525,34.02492c-4.19123,8.46305 -4.92014,12.09007 -4.92014,25.38915c0,12.60822 0.91114,17.09882 4.19123,23.48928c16.21824,31.08876 51.7526,43.69697 84.18908,29.87975z"/>
   <path stroke="null" fill="#4c4c4c" id="svg_5" d="m6966.39837,2677.61711c-25.51184,-5.18146 -50.11255,-25.9073 -59.7706,-50.26015c-18.22275,-46.63313 12.93815,-96.89329 65.41966,-105.18362c51.7526,-8.29033 99.86064,33.67949 95.85164,83.76692c-2.36896,30.39789 -23.8718,57.68691 -53.57487,68.22255c-11.84478,4.14517 -35.35213,5.87232 -47.92582,3.45431zm44.4635,-23.14385c5.46682,-2.41801 13.84929,-7.77219 18.40497,-12.26279c30.61421,-28.84346 22.41398,-75.99474 -16.40047,-95.51157c-8.20024,-4.14517 -11.11587,-4.66331 -28.24526,-4.66331c-16.5827,0 -20.22725,0.51815 -26.96966,3.97245c-31.8898,16.06252 -44.64573,51.46916 -29.33862,80.1399c15.85379,29.53432 51.02369,41.45167 82.54904,28.32531z"/>
  </g>
  <g stroke="null" id="svg_12">
   <g stroke="null" id="svg_9" fill="#000000" transform="matrix(0.0420007967775084,0,0,-0.04597789496729162,-511.49868317178334,-294.5531534571277) ">
    <path stroke="null" fill="#007f00" id="svg_10" d="m18264.82468,-6587.72395c-212,-47 -493,-187 -760,-377c-554,-396 -1233,-1062 -2054,-2017c-93,-107 -179,-216 -192,-242c-44,-87 -27,-157 56,-222c33,-27 55,-36 82,-36c35,0 42,-6 98,-76c121,-152 333,-465 624,-921c271,-425 551,-825 717,-1025c229,-275 512,-530 760,-687c309,-194 678,-269 953,-195c141,39 294,129 375,220l42,48l-3,115l-3,116l-54,28c-50,24 -65,27 -162,27l-108,0l-23,-30c-70,-95 -217,-91 -363,10c-166,114 -491,496 -747,879c-50,73 -190,300 -312,505c-425,708 -666,1060 -913,1332l-73,81l222,220c744,733 1047,1004 1506,1346c230,172 445,290 602,331c39,10 124,20 213,23c126,5 147,8 147,22c0,9 -5,57 -11,106c-15,123 -51,229 -97,290c-38,51 -118,106 -182,127c-56,17 -265,19 -340,2z"/>
    <path stroke="null" fill="#007f00" id="svg_11" d="m15554.82468,-6757.72395c-597,-32 -1283,-179 -1816,-390c-394,-155 -663,-307 -837,-473c-141,-134 -213,-270 -224,-422c-14,-185 73,-329 250,-413c115,-55 184,-69 317,-63c213,8 284,56 363,244c26,61 47,113 47,117c0,3 -50,6 -111,6l-112,0l7,48c17,132 131,268 336,401c305,198 645,337 1060,431c73,17 138,30 146,30c8,0 -8,-33 -42,-85c-238,-366 -500,-1064 -643,-1715c-83,-378 -130,-742 -152,-1170c-23,-455 8,-650 126,-787c99,-116 336,-154 490,-78c83,40 115,99 115,210c0,198 74,664 181,1145c241,1078 561,1991 910,2597c38,66 59,113 59,134c0,93 -58,172 -151,207c-59,22 -192,33 -319,26z"/>
   </g>
  </g>
  <text font-style="normal" font-weight="normal" stroke="#000" transform="matrix(1.5310406693187484,0,0,1,-134.28985796459588,0) " xml:space="preserve" text-anchor="start" font-family="Helvetica, Arial, sans-serif" font-size="134" id="svg_14" y="233.5" x="277.93019" stroke-width="0" fill="#000000">onstant</text>
  <text font-weight="bold" stroke="#000" transform="matrix(1.0949154863292279,0,0,1,-132.8555280382542,0) " xml:space="preserve" text-anchor="start" font-family="Helvetica, Arial, sans-serif" font-size="111" id="svg_15" y="371.5" x="513.1575" stroke-width="0" fill="#666666">m      vers</text>
  <ellipse rx="0.5" id="svg_17" cy="27.5" cx="631" stroke-opacity="null" stroke-width="0" stroke="#000" fill="#4c4c4c"/>
 </g>
</svg>